<?xml version="1.0" encoding="UTF-8"?>
<svg version="1.1" xmlns="http://www.w3.org/2000/svg" width="512" height="512">
<path d="M0 0 C1.66330605 -0.01485695 1.66330605 -0.01485695 3.36021423 -0.03001404 C5.17055649 -0.02326157 5.17055649 -0.02326157 7.01747131 -0.01637268 C8.296035 -0.02323593 9.57459869 -0.03009918 10.89190674 -0.03717041 C14.39197481 -0.05509243 17.89179204 -0.0539353 21.39189219 -0.04822803 C24.31682719 -0.04513467 27.2417141 -0.05123027 30.16664225 -0.05726677 C37.06845679 -0.07130732 43.97014753 -0.06975476 50.8719635 -0.05836487 C57.98562094 -0.0468846 65.09890134 -0.06095856 72.2125091 -0.08776134 C78.32648047 -0.1099328 84.44033362 -0.11655248 90.55434233 -0.11068493 C94.2031387 -0.1073175 97.8516934 -0.10971587 101.50045586 -0.12693596 C105.57017188 -0.14530495 109.63915637 -0.13120332 113.70887756 -0.11402893 C115.51618347 -0.12853088 115.51618347 -0.12853088 117.36000061 -0.14332581 C123.66530589 -0.08754838 127.68100034 0.05650601 132.4278717 4.38768005 C136.48417569 9.61027863 136.20184714 15.04108148 135.4278717 21.38768005 C133.25944355 25.96547283 131.03086277 28.34842635 126.4278717 30.38768005 C122.54436022 30.80313504 118.68499301 30.73608563 114.78334045 30.6806488 C113.6584169 30.67640396 112.53349335 30.67215912 111.3744812 30.66778564 C107.78786608 30.65101696 104.20181649 30.61336694 100.6153717 30.57518005 C98.18113504 30.56013093 95.74688955 30.54644292 93.31263733 30.53416443 C87.35065656 30.50367356 81.38989584 30.44494603 75.4278717 30.38768005 C75.4278717 40.94768005 75.4278717 51.50768005 75.4278717 62.38768005 C80.3778717 62.71768005 85.3278717 63.04768005 90.4278717 63.38768005 C93.94933819 63.85855911 97.38285556 64.36002498 100.8653717 65.01268005 C101.7829425 65.1838031 102.70051331 65.35492615 103.64588928 65.53123474 C139.86226873 72.638122 175.2713667 88.34116482 203.1934967 112.70799255 C205.4586405 114.41081044 206.64481276 115.0807823 209.4278717 115.38768005 C211.14438662 114.37614217 211.14438662 114.37614217 212.63246155 112.70310974 C213.5339241 111.78655609 213.5339241 111.78655609 214.45359802 110.85148621 C215.09221771 110.17764893 215.7308374 109.50381165 216.3888092 108.80955505 C217.05699677 108.12717773 217.72518433 107.44480042 218.41362 106.741745 C220.55554508 104.55186613 222.68025017 102.34626296 224.8028717 100.13768005 C226.91991768 97.94505967 229.04052404 95.75633128 231.17070007 93.57646179 C232.49661206 92.21868679 233.81485731 90.85337044 235.12425232 89.47966003 C239.21845946 85.27512161 243.00226849 81.96731718 248.9903717 80.9540863 C254.63865395 80.94503457 258.06693036 81.44206646 262.4278717 85.38768005 C266.33167657 89.70241175 266.88638151 93.13562137 266.9591217 98.7275238 C265.52617652 105.90278609 260.53739787 110.64411686 255.43959045 115.4931488 C254.08063184 116.81908022 252.72191478 118.14525924 251.36341858 119.47166443 C249.22986136 121.53658042 247.09239829 123.59722614 244.9500885 125.65306091 C242.87342263 127.65159433 240.812152 129.66502531 238.75209045 131.6806488 C238.10326401 132.29425766 237.45443756 132.90786652 236.78594971 133.54006958 C236.19816238 134.11779617 235.61037506 134.69552277 235.004776 135.29075623 C234.22012215 136.04518257 234.22012215 136.04518257 233.4196167 136.81484985 C232.20837389 138.37188486 232.20837389 138.37188486 232.66403198 140.44598389 C233.71761242 143.12420687 235.33823318 144.85349578 237.2403717 147.01268005 C260.89269052 175.44023043 274.99210809 209.45720185 282.4278717 245.38768005 C282.60721252 246.20333435 282.78655334 247.01898865 282.97132874 247.85935974 C288.39246613 273.23695823 287.99196583 304.08180001 282.4278717 329.38768005 C282.12985657 330.827724 282.12985657 330.827724 281.82582092 332.29685974 C274.60214871 366.80815665 260.45137067 398.73719573 238.4278717 426.38768005 C237.65572327 427.36478943 236.88357483 428.3418988 236.08802795 429.34861755 C224.00358357 444.29115917 210.1088614 458.24525323 194.4278717 469.38768005 C193.79719788 469.84626404 193.16652405 470.30484802 192.51673889 470.77732849 C165.28358565 490.44202861 135.15059173 502.61575763 102.4278717 509.38768005 C101.61221741 509.56702087 100.79656311 509.74636169 99.95619202 509.93113708 C74.56284254 515.35563919 43.75129082 514.9303158 18.4278717 509.38768005 C17.00377991 509.09764099 17.00377991 509.09764099 15.55091858 508.80174255 C-18.87476823 501.71988698 -51.03781174 487.31865186 -78.5721283 465.38768005 C-79.54923767 464.61553162 -80.52634705 463.84338318 -81.5330658 463.0478363 C-96.47560741 450.96339191 -110.42970147 437.06866975 -121.5721283 421.38768005 C-122.03071228 420.75700623 -122.48929626 420.1263324 -122.96177673 419.47654724 C-142.62647685 392.243394 -154.80020587 362.11040008 -161.5721283 329.38768005 C-161.75146912 328.57202576 -161.93080994 327.75637146 -162.11558533 326.91600037 C-173.79731398 272.23112563 -159.32836366 211.1385013 -129.60728455 164.62986755 C-124.42762899 156.83301898 -118.69494181 149.46614141 -112.5721283 142.38768005 C-111.91341736 141.61810974 -111.25470642 140.84853943 -110.57603455 140.0556488 C-99.37302205 127.28548522 -87.38594188 115.3078138 -73.5721283 105.38768005 C-72.61959167 104.6932782 -72.61959167 104.6932782 -71.64781189 103.98484802 C-38.57578603 80.11070201 4.06709168 62.38768005 45.4278717 62.38768005 C45.4278717 51.82768005 45.4278717 41.26768005 45.4278717 30.38768005 C40.00994202 30.45728943 40.00994202 30.45728943 34.4825592 30.52830505 C30.97769068 30.55951534 27.47283774 30.58379487 23.96791077 30.60740662 C21.53522289 30.62750076 19.10258319 30.65478094 16.6700592 30.68943787 C13.16993815 30.73805066 9.67045669 30.76067144 6.1700592 30.77830505 C5.08546417 30.7989502 4.00086914 30.81959534 2.88340759 30.84086609 C-3.26456606 30.84268604 -6.91570321 30.54099165 -11.5721283 26.38768005 C-15.62843228 21.16508148 -15.34610373 15.73427863 -14.5721283 9.38768005 C-11.49275947 2.8867903 -7.15706033 0.01809646 0 0 Z " fill="#FD6D88" transform="translate(195.57212829589844,-0.3876800537109375)"/>
<path d="M0 0 C0.97179199 0.01466309 1.94358398 0.02932617 2.94482422 0.04443359 C25.35415586 0.61772104 46.72113737 6.63746598 66.8125 16.4375 C67.44494629 16.74413574 68.07739258 17.05077148 68.72900391 17.36669922 C106.64210073 36.00915748 136.75295825 70.29436383 151.01123047 110.04443359 C161.79530411 142.25207828 163.91309207 177.73082093 153.8125 210.4375 C153.59980469 211.30890625 153.38710938 212.1803125 153.16796875 213.078125 C151.30915572 220.68730115 148.24762237 227.41858254 144.8125 234.4375 C144.22877594 235.69843648 143.64679244 236.96017993 143.06640625 238.22265625 C135.00154852 255.44123448 122.62013307 274.43886915 107 285.75 C102.67330687 287.10981784 98.87998048 287.4665012 94.79192829 285.43184566 C88.25919273 281.08180696 82.82256345 275.87333437 77.30737305 270.32055664 C76.28853472 269.30579226 75.26906125 268.29166525 74.24900818 267.27812195 C71.50268388 264.54537572 68.76581545 261.80334468 66.03105521 259.05903172 C63.15736159 256.17769605 60.27630222 253.30373991 57.3964386 250.42857361 C52.56544678 245.60302441 47.74078042 240.77121884 42.91967773 235.93579102 C37.35561242 230.35538359 31.78079757 224.78589026 26.20031327 219.22190577 C21.3954141 214.43064201 16.59641252 209.63353005 11.8022483 204.83152479 C8.94482109 201.96943475 6.08543935 199.1093765 3.22070885 196.2545948 C0.52898423 193.57156818 -2.15523475 190.8812473 -4.83395958 188.18524361 C-5.81495198 187.20030227 -6.79847315 186.21787175 -7.78475952 185.23823166 C-20.55006208 172.55101229 -20.55006208 172.55101229 -20.72443646 160.61457354 C-20.72982888 158.45698719 -20.71768041 156.29988491 -20.70507812 154.14233398 C-20.71050322 152.58454739 -20.71762806 151.02676594 -20.72631836 149.46899414 C-20.74450723 145.25206942 -20.73750308 141.03553746 -20.72480202 136.81860614 C-20.71465308 132.39981728 -20.72407278 127.98106134 -20.73034668 123.56227112 C-20.73761682 116.14374777 -20.72805126 108.72538389 -20.70898438 101.30688477 C-20.68720878 92.7356144 -20.69427445 84.16472454 -20.71629 75.59346336 C-20.73445252 68.22680199 -20.73699841 60.86025503 -20.72653532 53.49357849 C-20.72030609 49.09701397 -20.71944916 44.70062821 -20.73268127 40.30407524 C-20.74425191 36.17117657 -20.73619225 32.03876779 -20.71310425 27.90592194 C-20.70782393 26.39102809 -20.70931939 24.87609288 -20.71815491 23.36121559 C-20.7291217 21.28965019 -20.71533668 19.21964466 -20.69543457 17.1481781 C-20.69392647 15.99027991 -20.69241837 14.83238173 -20.69086456 13.63939571 C-19.89169917 8.5559146 -17.33471408 5.46810637 -13.57421875 2.08984375 C-8.9450519 -0.1686771 -5.08388271 -0.12304714 0 0 Z " fill="#FEDFE4" transform="translate(261.1875,121.5625)"/>
<path d="M0 0 C1.1088707 -0.00990463 2.21774139 -0.01980927 3.36021423 -0.03001404 C5.17055649 -0.02326157 5.17055649 -0.02326157 7.01747131 -0.01637268 C8.296035 -0.02323593 9.57459869 -0.03009918 10.89190674 -0.03717041 C14.39197481 -0.05509243 17.89179204 -0.0539353 21.39189219 -0.04822803 C24.31682719 -0.04513467 27.2417141 -0.05123027 30.16664225 -0.05726677 C37.06845679 -0.07130732 43.97014753 -0.06975476 50.8719635 -0.05836487 C57.98562094 -0.0468846 65.09890134 -0.06095856 72.2125091 -0.08776134 C78.32648047 -0.1099328 84.44033362 -0.11655248 90.55434233 -0.11068493 C94.2031387 -0.1073175 97.8516934 -0.10971587 101.50045586 -0.12693596 C105.57017188 -0.14530495 109.63915637 -0.13120332 113.70887756 -0.11402893 C115.51618347 -0.12853088 115.51618347 -0.12853088 117.36000061 -0.14332581 C123.66530589 -0.08754838 127.68100034 0.05650601 132.4278717 4.38768005 C136.48417569 9.61027863 136.20184714 15.04108148 135.4278717 21.38768005 C133.25944355 25.96547283 131.03086277 28.34842635 126.4278717 30.38768005 C122.54436022 30.80313504 118.68499301 30.73608563 114.78334045 30.6806488 C113.6584169 30.67640396 112.53349335 30.67215912 111.3744812 30.66778564 C107.78786608 30.65101696 104.20181649 30.61336694 100.6153717 30.57518005 C98.18113504 30.56013093 95.74688955 30.54644292 93.31263733 30.53416443 C87.35065656 30.50367356 81.38989584 30.44494603 75.4278717 30.38768005 C75.4278717 40.94768005 75.4278717 51.50768005 75.4278717 62.38768005 C65.5278717 62.38768005 55.6278717 62.38768005 45.4278717 62.38768005 C45.4278717 51.82768005 45.4278717 41.26768005 45.4278717 30.38768005 C40.00994202 30.45728943 40.00994202 30.45728943 34.4825592 30.52830505 C30.97769068 30.55951534 27.47283774 30.58379487 23.96791077 30.60740662 C21.53522289 30.62750076 19.10258319 30.65478094 16.6700592 30.68943787 C13.16993815 30.73805066 9.67045669 30.76067144 6.1700592 30.77830505 C5.08546417 30.7989502 4.00086914 30.81959534 2.88340759 30.84086609 C-3.26456606 30.84268604 -6.91570321 30.54099165 -11.5721283 26.38768005 C-15.62843228 21.16508148 -15.34610373 15.73427863 -14.5721283 9.38768005 C-11.49275947 2.8867903 -7.15706033 0.01809646 0 0 Z " fill="#FFEBEE" transform="translate(195.57212829589844,-0.3876800537109375)"/>
<path d="M0 0 C4.83858548 2.32968931 7.67031069 5.16141452 10 10 C11.09906052 16.78501647 9.85145783 21.32799555 6 27 C3.83962598 29.53304927 1.4993668 31.85221575 -0.8828125 34.17578125 C-1.53829071 34.82701462 -2.19376892 35.47824799 -2.86911011 36.1492157 C-4.94741621 38.21085189 -7.03593908 40.26176827 -9.125 42.3125 C-10.53584883 43.70828466 -11.94601214 45.10476261 -13.35546875 46.50195312 C-16.44652144 49.56362582 -19.54402675 52.61859028 -22.64749146 55.66767883 C-23.76998039 56.77341364 -24.88585663 57.88585663 -26 59 C-33.59 51.41 -41.18 43.82 -49 36 C-46.525 33.525 -46.525 33.525 -44 31 C-42.98412703 29.97149818 -41.96965303 28.94161051 -40.95727539 27.90966797 C-37.97520104 24.87420297 -34.98400757 21.84790665 -31.98950195 18.82470703 C-30.70392568 17.52398334 -29.4210464 16.22058856 -28.14086914 14.91455078 C-26.27941257 13.0165857 -24.40832617 11.12858445 -22.53515625 9.2421875 C-21.96934341 8.66089081 -21.40353058 8.07959412 -20.8205719 7.48068237 C-14.62364229 1.2811715 -8.79886219 -1.27540511 0 0 Z " fill="#FFD0D7" transform="translate(452,81)"/>
</svg>
